<svg xmlns="http://www.w3.org/2000/svg" aria-hidden="true" style="position:absolute;width:0;height:0;overflow:hidden"><defs><symbol id="icon-twitter-1" viewBox="0 0 32 32"><path fill="#afb1b8" d="M32 6c-1.2.6-2.5 1-3.8 1.1 1.4-.8 2.4-2 3-3.6-1.4.7-2.8 1.3-4.3 1.6a6.6 6.6 0 0 0-11.2 6A18.6 18.6 0 0 1 2.2 4.2a6.6 6.6 0 0 0 2 8.8c-1 0-2-.4-3-.8 0 3.2 2.4 5.9 5.3 6.5a6.5 6.5 0 0 1-3 0 6.6 6.6 0 0 0 6.2 4.6A13.2 13.2 0 0 1 0 26.1 18.5 18.5 0 0 0 28.7 9.5c1.3-1 2.4-2 3.3-3.4z" style="fill:var(--color1, #afb1b8)"/></symbol><symbol id="icon-linkedin-1" viewBox="0 0 32 32"><path fill="#afb1b8" d="M32 32V20.3c0-5.8-1.2-10.2-8-10.2a7 7 0 0 0-6.2 3.4h-.1v-2.9h-6.4V32H18V21.4c0-2.8.6-5.5 4-5.5s3.5 3.2 3.5 5.7V32H32zM.5 10.6h6.7V32H.5V10.6zM3.8 0C1.8 0 0 1.7 0 3.8s1.7 4 3.8 4c2.2 0 3.9-1.8 3.9-4C7.7 1.8 6 0 3.8 0z" style="fill:var(--color1, #afb1b8)"/></symbol><symbol id="icon-facebook-1" viewBox="0 0 32 32"><path fill="#afb1b8" d="M21.3 5.3h3v-5C23.6.1 22 0 20 0c-4.2 0-7.1 2.6-7.1 7.5V12H8.2v5.7H13V32h5.7V17.7h4.5l.7-5.7h-5.2V8c0-1.6.4-2.7 2.7-2.7z" style="fill:var(--color1, #afb1b8)"/></symbol><symbol id="icon-instagram-2" viewBox="0 0 32 32"><path fill="#fff" d="M32 9.4c-.1-1.7-.4-2.9-.8-3.9s-1-2-1.8-2.8A7.9 7.9 0 0 0 26.5.8c-1-.4-2.1-.6-3.8-.7A109.5 109.5 0 0 0 5.6.8c-1 .4-2 1-2.9 1.9C2 3.5 1.3 4.5 1 5.5.5 6.5.2 7.7.2 9.4a109.5 109.5 0 0 0 .7 17c.4 1.2 1 2.1 1.8 3 .8.7 1.8 1.4 2.9 1.8 1 .4 2.2.6 3.9.7a117.2 117.2 0 0 0 17-.7 8.2 8.2 0 0 0 4.7-4.7c.4-1 .7-2.2.8-3.9V9.4zm-3 13c0 1.6-.2 2.5-.5 3a5.3 5.3 0 0 1-3 3c-.6.3-1.4.6-3 .6a112.7 112.7 0 0 1-15.9-.5 5 5 0 0 1-1.8-1.2 5 5 0 0 1-1.2-1.9c-.2-.5-.5-1.4-.5-3a112.7 112.7 0 0 1 .5-15.8c.3-.7.7-1.3 1.2-1.9a5 5 0 0 1 1.8-1.1c.6-.3 1.5-.5 3-.6a112.7 112.7 0 0 1 15.9.6 5 5 0 0 1 1.8 1.1 5 5 0 0 1 1.2 1.9c.3.5.5 1.4.6 3a112.7 112.7 0 0 1 0 12.9z" style="fill:var(--color1, #fff)"/><path fill="#fff" d="M16 7.8a8.2 8.2 0 1 0 0 16.4 8.2 8.2 0 0 0 0-16.4zm0 13.5a5.3 5.3 0 1 1 0-10.6 5.3 5.3 0 0 1 0 10.6zM26.5 7.5a2 2 0 1 1-3.8 0 2 2 0 0 1 3.8 0z" style="fill:var(--color1, #fff)"/></symbol><symbol id="icon-smartphone" viewBox="0 0 20 32"><path fill="#757575" d="M17 0H3a3 3 0 0 0-3 3v26a3 3 0 0 0 3 3h14a3 3 0 0 0 3-3V3a3 3 0 0 0-3-3zM3 2h14c.6 0 1 .4 1 1v21H2V3c0-.6.4-1 1-1zm14 28H3a1 1 0 0 1-1-1v-3h16v3c0 .6-.4 1-1 1z" style="fill:var(--color3, #757575)"/><path fill="#757575" d="M4.7 27.5c.4.3.4 1 0 1.3s-1 .4-1.4 0c-.4-.4-.4-1 0-1.3s1-.4 1.4 0z" style="fill:var(--color3, #757575)"/></symbol><symbol id="icon-envelope" viewBox="0 0 43 32"><path fill="#2196f3" d="M38.7 0H4a4 4 0 0 0-4 4v24a4 4 0 0 0 4 4h34.7a4 4 0 0 0 4-4V4a4 4 0 0 0-4-4zm0 2.7h.5L21.3 18.3 3.5 2.8l.5-.1h34.7zm0 26.6H4c-.7 0-1.3-.6-1.3-1.3V5.6L20.5 21c.2.2.5.3.8.3s.7 0 1-.3L40 5.6V28c0 .7-.6 1.3-1.3 1.3z" style="fill:var(--color4, #757575)"/></symbol><symbol id="icon-Group-4" viewBox="0 0 72 32"><path fill="#f5f4fa" d="M1 0h70c.5 0 1 .5 1 1v30c0 .5-.5 1-1 1H1a1 1 0 0 1-1-1V1c0-.5.5-1 1-1z" style="fill:var(--color5, #f5f4fa)"/><path fill="#2196f3" d="m45.3 9.3-.2-.2-1.1-.2-.5-1c-.2-.2-.5-.2-.6 0l-.5 1-1.1.2a.3.3 0 0 0-.2.5l.8.8-.2 1.1a.3.3 0 0 0 .5.3l1-.5 1 .5a.3.3 0 0 0 .4-.3l-.2-1 .8-.9c.1 0 .2-.2.1-.3zm-1.4.8-.1.3.1.6-.6-.3a.3.3 0 0 0-.3 0l-.6.3.2-.6-.1-.3-.5-.5h.6c.2 0 .2-.2.3-.2l.3-.6.3.6.2.1.7.1-.5.5zM42 18.6h-.7v.7h.6v-.7zM42 19.9h-.7v.6h.6v-.6zM42.5 19.3H42v.6h.6v-.6zM41.3 19.3h-.6v.6h.6v-.6zM39.7 22h-.6v.7h.6V22zM39.7 23.3h-.6v.6h.6v-.6zM40.4 22.7h-.7v.6h.7v-.6zM39.1 22.7h-.6v.6h.6v-.6zM36 20.8h-.6v.6h.6v-.6zM36 22h-.6v.7h.6V22zM36.6 21.4H36v.7h.6v-.7zM35.4 21.4h-.6v.7h.6v-.7zM30 10.2h-.5v.7h.6v-.7zM30 11.5h-.5v.6h.6v-.6zM30.7 10.9h-.6v.6h.6v-.6zM29.5 10.9h-.7v.6h.7v-.6z" style="fill:var(--color4, #2196f3)"/><path fill="#212121" d="M41 15a1 1 0 0 0-.6-.5 1 1 0 0 0-.8.2l-.7.6-1.1.8-.8-.3A4 4 0 0 0 35.3 8a4 4 0 0 0-3.4 6.2H30.2l-2 1-1 .5a1 1 0 0 0 1 1.8l.8-.4 1.3-.7h.8L28 19.6l-.8.8a1 1 0 0 0 0 1.4 1 1 0 0 0 1.3 0l.8-.8 1-.7.6.5-1 1-.9.8-.2.7c0 .3 0 .5.2.7l.7.2c.2 0 .5 0 .7-.2l2-2 .6-.7 3-3.3 2 .3H38.4l1.9-1.3.8-.7c.3-.4.4-1 0-1.4zm-13 2c-.2 0-.3.1-.4 0l-.3-.1c0-.2 0-.5.2-.6l.7-.3.2.5v.2l-.5.3zm2-1-1 .4-.1-.4-.1-.3L30 15v.9zm8.8-3.9c0 .5-.2 1-.4 1.5L36 12.5a1 1 0 0 0-.5-.8l.9-2.9c1.4.5 2.4 1.8 2.4 3.3zm-7 0a3.4 3.4 0 0 1 4-3.4l-.9 2.8c-.6 0-1.1.5-1.1 1s.5 1.2 1 1.2a1 1 0 0 0 1-.6l2.3 1a3.4 3.4 0 0 1-6.2-2zm3.6.5a.5.5 0 0 1-1 0c0-.3.2-.5.5-.5.2 0 .5.2.5.5zM28 21.3c-.1.2-.4.2-.5 0a.3.3 0 0 1 0-.5l.6-.5.5.5-.6.5zm1.9 2.2a.4.4 0 0 1-.6-.2V23l.6-.5.5.5-.5.5zm2-2-1 1-.5-.5 1-1v-.1l.1-.1v-.2l-1-1h-.1c-.1 0 0 0 0 0H30.1l-1 .8-.6-.6 1.4-1.3 2.5 2.5-.5.5zm4-4.1a.3.3 0 0 0-.2 0v.1l-2.8 3-2.6-2.5 1.7-1.6a.3.3 0 0 0-.2-.6h-1.3V15h1.8a4 4 0 0 0 3.7 1.2l1.4.6.1.4.1.5-1.7-.2zm2.3.1-.1-1 .8-.5.6.7-1.3.8zm2.2-1.7-.5.5-.5-.7.5-.4a.4.4 0 0 1 .6.1v.5z" style="fill:var(--color6, #212121)"/><path fill="#212121" d="m34.6 17.5-1.2-1.3a.3.3 0 0 0-.5 0l-1.2 1.3a.3.3 0 0 0 0 .4l1.2 1.3h.4l1.3-1.3v-.4zm-1.5 1-.8-.8.8-.8.8.8-.8.8zM36.7 9.6l-.2.6s1 .3 1 1.3h.7c0-1.2-1-1.7-1.5-1.9zM38.2 12.1h-.7v.6h.7v-.6z" style="fill:var(--color6, #212121)"/></symbol><symbol id="icon-Group-3" viewBox="0 0 72 32"><path fill="#f5f4fa" d="M1 0h70c.5 0 1 .5 1 1v30c0 .5-.5 1-1 1H1a1 1 0 0 1-1-1V1c0-.5.5-1 1-1z" style="fill:var(--color5, #f5f4fa)"/><path fill="#2196f3" d="M35.4 15.4h.6v2.8h-.6v-2.8zM37.9 16.6h.6v1.6h-.6v-1.6zM32.9 17.6h.6v.6H33v-.6zM31 17.3h.6v.9H31v-1z" style="fill:var(--color4, #2196f3)"/><path fill="#212121" d="M27.6 23.2h15c.4 0 .9-.4.9-1V21c0-.5-.5-1-1-1h-.3v-7.7l1.8-1.7a1 1 0 1 0-.5-.4l-1.3 1.3v-.8c0-.5-.4-.9-1-.9H28.9a1 1 0 0 0-.9 1V20h-.3a1 1 0 0 0-1 .9v1.2c0 .6.5 1 1 1zM44.4 9.5a.3.3 0 1 1 0 .6.3.3 0 0 1 0-.6zm-15.9 1.2.3-.3h12.5c.2 0 .3.2.3.3V12l-.6.6v-1.2c0-.2-.2-.4-.3-.4H29.5c-.2 0-.3.2-.3.4V19c0 .2 0 .3.3.3h11.2c.1 0 .3-.1.3-.3v-5.6l.6-.6v7.2h-13v-9.4zm2.8 4a1 1 0 1 0 .7 1.7l1 .5h.4l2.3-2.6L38 16h.4l2-2v4.8H29.7v-7.1h10.5v1.5l-2.2 2.1-2.2-1.7a.3.3 0 0 0-.4 0L33 16.3l-.8-.5c0-.6-.5-1-1-1zm.3 1a.3.3 0 1 1-.6 0 .3.3 0 0 1 .6 0zm2 5h3v.3c0 .2-.1.3-.3.3h-2.5a.3.3 0 0 1-.3-.3v-.3zm-6.3.3c0-.2.1-.3.3-.3h5.3v.3c0 .5.4 1 1 1h2.4c.5 0 1-.5 1-1v-.3h5.2c.2 0 .3.1.3.3v1.2c0 .2-.1.3-.3.3H27.6a.3.3 0 0 1-.3-.3V21z" style="fill:var(--color6, #212121)"/></symbol><symbol id="icon-Group-2" viewBox="0 0 72 32"><path fill="#f5f4fa" d="M1 0h70c.5 0 1 .5 1 1v30c0 .5-.5 1-1 1H1a1 1 0 0 1-1-1V1c0-.5.5-1 1-1z" style="fill:var(--color5, #f5f4fa)"/><path fill="#212121" d="M45 15.6A9 9 0 1 0 33.3 24h.2l.2-.2 2.2-7.2a1.1 1.1 0 1 0-.5-2.1l-3-3a.4.4 0 0 0-.5.5l3 3a1 1 0 0 0 .3 1.4l-2.1 6.8a8.2 8.2 0 1 1 6.1-.2l-.2-1.1a.4.4 0 0 0-.6-.2l-2.3 2a.4.4 0 0 0 .2.6l2.8 1a.4.4 0 0 0 .5-.5l-.2-1a8.9 8.9 0 0 0 5.4-8.3zm-9-.4a.4.4 0 1 1 0 .8.4.4 0 0 1 0-.8zm1.2 8.7 1.3-1.1.3 1.6-1.6-.5z" style="fill:var(--color6, #212121)"/><path fill="#2196f3" d="M35.6 8.5v.8a.4.4 0 1 0 .8 0v-.8a.4.4 0 0 0-.8 0zM29 15.2a.4.4 0 1 0 0 .8h.7a.4.4 0 1 0 0-.8h-.8zM43 16a.4.4 0 1 0 0-.8h-.7a.4.4 0 1 0 0 .8h.8z" style="fill:var(--color4, #2196f3)"/></symbol><symbol id="icon-Group-1" viewBox="0 0 72 32"><path fill="#f5f4fa" d="M1 0h70c.5 0 1 .5 1 1v30c0 .5-.5 1-1 1H1a1 1 0 0 1-1-1V1c0-.5.5-1 1-1z" style="fill:var(--color5, #f5f4fa)"/><path fill="#212121" d="m44.6 19.6-5-5 .6-2.7h.5a1.3 1.3 0 1 0-1.2-.7l-2.9.3L32 6.8a.3.3 0 0 0-.4 0l-1 .8v.5l.6.5a8.7 8.7 0 0 0 1.5 10.3v3.9h-3.8c-.8 0-1.5.7-1.5 1.6v.6c0 .2.1.3.3.3h14.3c.2 0 .3-.1.3-.3v-.6c0-.9-.7-1.6-1.5-1.6h-3.8v-1.6a8.8 8.8 0 0 0 6-.8l.4.5a.3.3 0 0 0 .4 0l1-.9v-.4zm-4.4-9.3a.6.6 0 1 1 .5 1 .6.6 0 0 1-.5-1zm-.7 2-.3 1.8-.7-.7 1-1zm-.3-.5L38 13l-.8-.8 2-.3zm1.5 11.7c.5 0 .9.4.9.9v.3H27.9v-.3c0-.5.4-1 1-1h11.8zm-4.4-1.3v.6h-3.1v-.6h3.1zm-3.1-.6v-2.4c0-.7.7-1.3 1.6-1.3s1.5.6 1.5 1.3v2.4h-3.1zm3.7-1v-1.4c0-1-1-2-2.1-2-.8 0-1.5.4-2 1A8 8 0 0 1 31.5 9l10.9 11a8 8 0 0 1-5.5.6zm6.6-.4L31.2 8l.5-.5 4.6 4.7 7.7 7.7-.5.4z" style="fill:var(--color6, #212121)"/><path fill="#2196f3" d="M34.8 18.5a1 1 0 0 0 0 1.9 1 1 0 0 0 0-2zm.2 1.1-.2.1a.3.3 0 0 1-.3-.5h.3a.3.3 0 0 1 .2.4z" style="fill:var(--color4, #2196f3)"/></symbol><symbol id="icon-Client-6" viewBox="0 0 59 32"><path fill="#afb1b8" d="M29.7 15.1a1 1 0 0 1-.2-.7v-1c0-.3 0-.5.2-.7s.4-.2.7-.2c.3 0 .6 0 .7.2.2.1.2.4.2.6v.2h-.6v-.6h-.5v.1l-.1.3v1.6h.5l.1-.1v-.5h.6v.2c0 .2 0 .4-.2.6-.1.2-.3.2-.7.2s-.5 0-.7-.2zM32 15.1l-.1-.7v-1c0-.3 0-.6.2-.7s.4-.2.7-.2c.3 0 .6 0 .7.2l.2.7v1c0 .3 0 .5-.2.7s-.4.2-.7.2c-.3 0-.6 0-.7-.2zm1-.2c.1-.1.2-.2.1-.4V13H32.5v2h.5zM34.4 12.5h.7l.4 2 .5-2h.6v2.8h-.4v-2l-.5 2h-.4l-.4-2v2h-.5v-2.8zM37.3 12.5h1c.5 0 .8.3.8.8s-.3.8-.9.8H38v1.2h-.6v-2.8zm.9 1.2a.5.5 0 0 0 .3 0V12.8h-.6v.8h.3zM40 12.5h.6l.7 2.8h-.6l-.1-.6H40l-.1.6h-.6l.7-2.8zm.5 1.8-.2-1.1-.2 1.1h.4zM41.8 12.5h.4L43 14v-1.6h.5v2.8H43l-.8-1.7v1.7h-.5v-2.8zM44.6 14.2l-.6-1.7h.5l.4 1.1.4-1.1h.5l-.6 1.7v1.1h-.6v-1zM30.6 16.5v.2h-.5v1.1H30v-1.1h-.4v-.2h1.1zM32.1 17.8H32l-.2-.3H31l-.1.3H30.6l.6-1.3h.2l.6 1.3zm-1-.5h.6l-.2-.5v-.1l-.1.1-.2.5zM33.2 17.7a.8.8 0 0 0 .3 0v-.4h-.2v-.1h.4v.5a.8.8 0 0 1-.2.1 1.2 1.2 0 0 1-.7 0l-.2-.1a.6.6 0 0 1-.2-.5v-.3l.2-.2.2-.1a1 1 0 0 1 .5 0 .8.8 0 0 1 .3 0v.2h-.1a.6.6 0 0 0-.2-.1.8.8 0 0 0-.4 0l-.2.1v.2c-.1.1-.1.3 0 .4v.2h.2l.3.1zM35 17.7h.7v.1h-.9v-1.3h.2v1.2zM36.4 17.8h-.2v-1.3h.2v1.3zM37.1 16.5l.9 1v-1h.2v1.3H38l-.9-1V18H37v-1.4h.1zM39.7 16.5v.2h-.8v.4h.6v.1H39v.5h.8v.1h-1v-1.3h1zM18.5 8.6l9 2.2v7.7l-9-2.2V8.6zm-.6-.7v8.8L28 19v-8.7L18 7.9z" style="fill:var(--color1, #afb1b8)"/><path fill="#afb1b8" d="m23.3 23.2-10-2.5V12l10 2.5v8.7z" style="fill:var(--color1, #afb1b8)"/><path fill="#afb1b8" d="m18 8.5 9 2.1-3.8 3.3-8.9-2.2 3.8-3.2zm0-.6-4.8 4 10.1 2.6 4.7-4.1-10-2.5zM24 22.7l4-3.6-4-1v4.6z" style="fill:var(--color1, #afb1b8)"/></symbol><symbol id="icon-Client-5" viewBox="0 0 59 32"><path fill="#afb1b8" d="m20.4 21.1.2.4v.2l-.2.2a1 1 0 0 1-.6.2h-1v-2.2h1l.5.1.2.2v.2l-.1.4-.3.1.3.2zm-1.1-.3H19.9a.3.3 0 0 0 .1-.3v-.1c0-.1 0 0 0 0l-.3-.2h-.4v.6zm.7.8v-.4h-.7v.5h.7zM22.5 22l-.6-.8h-.2v.9h-.5v-2.2h1c.2 0 .4 0 .5.2.2.1.2.3.3.4s0 .3-.2.5l-.4.2.6.9h-.5zm-.8-1h.4c.3 0 .4-.2.4-.4v-.1l-.1-.2h-.7v.6zM25 21.6h-.9l-.2.5h-.5l1-2.2h.4l1 2.2h-.6l-.2-.5zm0-.3-.4-1-.4 1h.7zM28.3 22h-.5l-1-1.4V22h-.5v-2.2h.5l1 1.5v-1.5h.5v2.2zM31 21.5a1 1 0 0 1-.5.4l-.6.2H29v-2.2h.9l.6.1.5.4.1.6-.1.5zm-.6 0c.2-.2.2-.3.2-.5l-.2-.5a.9.9 0 0 0-.6-.2h-.3v1.4h.3c.3 0 .5 0 .6-.2zM25.3 8s6.1 2 6 5v5.2s-6-2.1-6-5.1V7.9zM36.7 17a8.8 8.8 0 0 1 3.8-1.3V14c-1.6.5-3 1.6-3.8 2.9z" style="fill:var(--color1, #afb1b8)"/><path fill="#afb1b8" d="M36 17.5a8 8 0 0 1 4.5-3.8V9.1s-8.6 3-8.4 7.3v7.3l1-.4v-.7c.2-2 1.2-3.8 2.9-5.1z" style="fill:var(--color1, #afb1b8)"/><path fill="#afb1b8" d="m35.2 20.2.3-1.5a6.8 6.8 0 0 0-1.9 4.4l1.7-.8a7 7 0 0 1-.1-2.1zM35.5 20.2l.1 2c2.4-1.4 5-3.4 5-5.8v-.2a8 8 0 0 0-4.6 2l-.5 2z" style="fill:var(--color1, #afb1b8)"/></symbol><symbol id="icon-Client-4" viewBox="0 0 59 32"><path fill="#2196f3" d="M19.5 12.9c-.8 0-1.5.6-1.5 1.3 0 .8.7 1.4 1.5 1.4.9 0 1.5-.6 1.5-1.4 0-.7-.6-1.3-1.5-1.3zM30.7 12.5c0-1-.5-2-1.3-2.8s-2-1.1-3-1.1c-1.3 0-2.4.4-3.2 1.1S22 11.4 22 12.5v5.7s8.8-1 8.8-5.7zM15 20c0 .7.3 1.4.9 2s1.3.7 2.1.7 1.6-.3 2.1-.8 1-1.2 1-1.9v-4s-6.1.7-6.1 4zm3 .7h-.4l-.3-.4c-.1-.1-.1-.3 0-.4l.1-.4.4-.2h.5l.4.3.1.4v.3l-.2.2-.3.2H18zM24.1 20.3h-.5v.6h-.3v-1.4h1v.2h-.7v.4h.5v.2zm1.5 0v.3l-.3.3h-.6l-.3-.3v-.8l.3-.3h.6l.2.3.1.4zm-.3-.1v-.4l-.3-.1-.3.1v.8l.3.1.2-.1.1-.4zm1.3.4v-.2h-.3l-.2-.2c-.2 0-.3-.2-.3-.3v-.3l.3-.1a.7.7 0 0 1 .6 0l.1.2.1.2h-.3v-.2h-.4v.2l.2.2c.2 0 .3 0 .4.2l.1.2-.1.4H26l-.3-.2v-.2h.3c0 .1 0 .2.3.2h.1l.1-.1zm1.6-.9h-.4v1.2h-.3v-1.2H27v-.2h1.2v.2zm1.1.6h-.6v.4h.7v.2h-1v-1.4h1v.2h-.7v.4h.6v.2zm.8.1H30v.5h-.3v-1.4h.9l.2.4v.3l-.3.1.3.6h-.3l-.3-.5zm-.2-.2h.2l.2-.1V19.8c0-.1 0 0-.2 0H30v.4zm1.8.2v.5h-.3v-1.4H32.3l.2.2V20.3l-.5.1h-.3zm0-.2h.5v-.4h-.5v.4zm2 .1H33v.4h.7v.2h-1v-1.4h1v.2H33v.4h.6v.2zm1.4-.6h-.5v1.2h-.3v-1.2H34v-.2H35v.2zm1 .6h-.5v.4h.7v.2h-1v-1.4h1v.2h-.7v.4h.6v.2zm.9.1h-.2v.5h-.4v-1.4h1l.1.4v.3l-.2.1.3.6h-.3l-.3-.5zm-.2-.2h.2l.2-.1V19.8c0-.1-.1 0-.2 0h-.2v.4zm1.7.4v-.2h-.2l-.3-.2c-.2 0-.2-.2-.2-.3v-.3l.2-.1a.7.7 0 0 1 .6 0l.2.2v.2h-.2l-.1-.2H38v.2l.3.2c.1 0 .3 0 .3.2l.2.2c0 .2 0 .3-.2.4H38l-.2-.2v-.2h.2c0 .1.1.2.3.2h.2v-.1z" style="fill:var(--color1, #afb1b8)"/></symbol><symbol id="icon-Client-3" viewBox="0 0 59 32"><path fill="#afb1b8" d="m23.8 22.6.1.1-.2.2H23l-.2-.2-.2-.2a.7.7 0 0 1 0-.5l.2-.2.2-.1a.9.9 0 0 1 .6 0l.2.1-.1.1h-.1a.6.6 0 0 0-.5 0H23v.2l-.1.2v.2l.1.1.2.1H23.5a.5.5 0 0 0 .3 0zM26 22.3v.2l-.2.2-.2.2a1 1 0 0 1-.6 0l-.2-.2-.2-.2V22l.2-.2.2-.1h.6l.2.1.1.2v.3zm-.2 0V22a.4.4 0 0 0-.3-.3H25l-.2.1v.2c-.1.1-.1.3 0 .4a.4.4 0 0 0 .2.2h.5l.1-.2v-.2zM27.5 22.5l.5-.8h.2v1.2h-.1v-1l-.5.8h-.1l-.6-.8v1h-.2v-1.2h.2l.6.8zM29.3 22.4v.5h-.2v-1.2H30l.1.2v.1a.4.4 0 0 1 0 .3l-.2.1h-.5zm0-.1h.4l.1-.2v-.2l-.3-.1h-.2v.5zM31.9 22.9h-.2l-.2-.3H31l-.2.3h-.2l.6-1.2h.2l.5 1.2zm-1-.5h.5l-.2-.5-.3.5zM32.7 21.7l.8 1v-1.1h.2V23h-.1l-.9-1v1h-.2v-1.2h.1zM35.1 22.4v.5h-.2v-.5l-.5-.7h.2l.3.5h.1l.4-.5h.2l-.5.7zM27.4 19.6h.2c1.3-.5 2.4-1.3 3.1-2.4S32 15 32 13.8l-1.5-1.2c.3 1.3.2 2.6-.3 3.9s-1.5 2.3-2.7 3z" style="fill:var(--color1, #afb1b8)"/><path fill="#afb1b8" d="M26.9 19.5c1.3-.8 2.3-1.9 2.8-3.2s.7-2.7.3-4l-2-1.8a7.5 7.5 0 0 1-1.1 9zM33.7 15.2a6.3 6.3 0 0 1-2.4 3.5l-1 .7c.9-.3 1.8-.7 2.5-1.3s1.3-1.3 1.7-2.1l-.8-.8z" style="fill:var(--color1, #afb1b8)"/><path fill="#afb1b8" d="m33.4 15-1.2-1c0 1.2-.4 2.3-1 3.3s-1.7 1.8-3 2.3h.9c1-.4 2-1 2.8-1.8S33 16 33.4 15zM27 9.8l-1.3-1.2c-1.3.4-2.3 1.1-3 2s-1.2 2.2-1.2 3.3c0 1.3.5 2.5 1.4 3.5s2.1 1.7 3.5 2c1.3-1.3 2-3 2.2-4.7s-.5-3.5-1.6-5zM36.6 14.9c0-1.5-.7-3-2-4S31.7 9.1 30 9.1c-.8 0-1.6 0-2.3.3L36 17a5 5 0 0 0 .5-2z" style="fill:var(--color1, #afb1b8)"/></symbol><symbol id="icon-Client-2" viewBox="0 0 59 32"><path fill="#afb1b8" d="M28.6 8.2H28a8.4 8.4 0 0 0-.4 0c-1.3.1-2.5.4-3.7 1H24V17h.3a13.3 13.3 0 0 1 3.8-.7v1h-.3a11.2 11.2 0 0 0-4.8 1.3V8.6A10.3 10.3 0 0 1 28 7.2h.2a9 9 0 0 1 1.8.2v1a8 8 0 0 0-1.3-.2h-.2zm1.7 1h.7A11 11 0 0 0 36.3 8v9.7a10.4 10.4 0 0 1-7.2 1.2V9.1a9.1 9.1 0 0 0 1.2.1zm5 .1-.4.1-1 .3a12 12 0 0 1-3.5.4H30V18h.2a8.1 8.1 0 0 0 3-.3l1.8-.6h.2V9.2zM23.6 21.9a.5.5 0 0 0-.4-.2h-.3a.5.5 0 0 0-.2.4v1.8l.1.2H23.4a.6.6 0 0 0 .3-.5v-.1h-.3v.2l-.2.1H23V22.2a.2.2 0 0 1 .2-.1s.1 0 .1 0V22.4h.4a.6.6 0 0 0-.1-.5zM25.6 21.9a.6.6 0 0 0-.6-.1h-.2l-.1.3v1.7l.1.2.2.1a.6.6 0 0 0 .4 0h.2l.1-.3V22zm-.2 1.7v.2a.3.3 0 0 1-.3 0 .2.2 0 0 1-.1-.2V22a.3.3 0 0 1 .4 0 .2.2 0 0 1 0 .2v1.3zM28.3 24.1v-2.4H28l-.5 1.3-.4-1.3h-.3v2.4h.3v-1.4l.3 1h.2l.4-1V24h.3zM30.2 22l-.1-.2h-.8V24h.3v-.9h.5l.2-.2v-.3l.1-.2V22l-.2-.2zm-.1.6v.2h-.5v-.7h.4v.5zM31.9 21.7h-.3l-.5 2.4h.3l.1-.5h.5v.5h.4l-.5-2.4zm-.4 1.6.2-.9.2.9h-.4zM34 23.2l-.5-1.5h-.3v2.4h.4v-1.4l.5 1.4h.3v-2.4h-.3v1.5zM36.2 21.7l-.3 1-.3-1h-.4l.5 1.4v1h.3v-1l.5-1.4h-.3zM22.6 24.8h.2v.5-.5h.2-.4zM24 24.7l-.2.6.1-.1h.4l-.2-.5H24zm0 .4v-.2l.1.2H24zM25.4 25v.2h-.1c-.1 0 0 0 0 0l-.1-.2c0-.1 0-.2.2-.2s0 0 0 .1h.2l-.2-.2h-.2a.3.3 0 0 0-.1.3v.2a.3.3 0 0 0 .3 0h.2V25h-.2zM26.8 24.7h-.2v.6h.4v-.1h-.2v-.5zM28 24.7h-.2v.6h.1v-.6zM29 25.1l-.1-.4h-.1v.6-.4l.3.4v-.6.4zM30.1 25h.3-.3v-.2h.3-.4v.5h.4v-.1h-.3V25zM32.7 25h-.3v-.3.6-.3h.3v.3-.6.2zM33.7 25h.3-.3v-.2h.3-.4v.5h.4v-.1h-.3V25zM35.1 25l.2-.1v-.1h-.5v.5h.1V25h.1v.1l.2.2h.1v-.1L35 25zm0 0h-.2v-.2h.2v.1zM36.2 25h.3-.3v-.2h.3-.4v.5h.4v-.1h-.3V25z" style="fill:var(--color1, #afb1b8)"/></symbol><symbol id="icon-Client-1" viewBox="0 0 59 32"><path fill="#afb1b8" d="m24.3 8.6 2.5 2.3h-4.5v11.2H34v-4.3l2.4 2.3V8.6H24.3zm9.7 9L27 11h7v6.5zm-2.2 2.9h-7.7v-7.6h.6v7h7.1v.6zm-5.8 3-.3.7-.3-.6H25l.5.8v.4h.2v-.4l.4-.8h-.3zm.3 1.3.1-.3h.5v.3h.3l-.5-1.2h-.1l-.5 1.2h.2zm.3-1 .2.6h-.3l.1-.6zm1.2.5v.4l.3.1h.7l-.2-.2v-.4l-.1.3-.3-.3h.1l.1-.2v-.4h-.5V24.3l-.1.1zm.5.3H28c-.1 0 0 0 0-.1v-.2l.3.3zm-.2-.5V23.8h.2v.2H28zm2 .6c.1 0 .2-.1.2-.3H30l-.1.2h-.4v-.8h.4v.2h.3c0-.1 0-.2-.2-.3l-.3-.1h-.3l-.1.2-.1.4v.4l.2.2h.6zm1.3-.1v-.7l-.2-.3h-.5l-.2.3v.7l.2.2h.5l.2-.2zm-.2-.7v.7h-.5v-.7l.2-.1h.3z" style="fill:var(--color1, #afb1b8)"/></symbol><symbol id="icon-Ellipse-3" viewBox="0 0 32 32"><path fill="#fff" d="M32 16A16 16 0 0 1 4.7 27.3 16 16 0 0 1 16 0a16 16 0 0 1 16 16z" opacity=".1" style="fill:var(--color1, #fff)"/><path fill="#fff" d="M23.3 23.3v-5.4c0-2.6-.6-4.6-3.6-4.6-1.5 0-2.5.8-2.9 1.6v-1.3h-3v9.7h3v-4.8c0-1.3.3-2.5 1.9-2.5 1.5 0 1.6 1.4 1.6 2.5v4.8h3zM9 13.6h3v9.7H9v-9.7zM10.5 8.7c-1 0-1.8.8-1.8 1.8s.8 1.7 1.8 1.7 1.7-.8 1.7-1.7-.8-1.8-1.7-1.8z" style="fill:var(--color1, #fff)"/></symbol><symbol id="icon-Ellipse-2" viewBox="0 0 32 32"><path fill="#fff" d="M32 16A16 16 0 0 1 4.7 27.3 16 16 0 0 1 16 0a16 16 0 0 1 16 16z" opacity=".1" style="fill:var(--color1, #fff)"/><path fill="#fff" d="M18.4 11.1h1.4V8.8h-2c-1.9 0-3.2 1.1-3.2 3.3v2h-2.1v2.7h2v6.5h2.7v-6.5h2l.3-2.6h-2.3v-1.8c0-.7.2-1.3 1.2-1.3z" style="fill:var(--color1, #fff)"/></symbol><symbol id="icon-Ellipse-1" viewBox="0 0 32 32"><path fill="#2196f3" d="M32 16A16 16 0 0 1 4.7 27.3 16 16 0 0 1 16 0a16 16 0 0 1 16 16z" style="fill:var(--color2, #2196f3)"/><path fill="#fff" d="m23.3 11.5-1.7.5c.6-.4 1-1 1.3-1.7a6 6 0 0 1-2 .7 3 3 0 0 0-5 2.8 8.4 8.4 0 0 1-6.2-3.2 3 3 0 0 0 1 4 3 3 0 0 1-1.4-.3 3 3 0 0 0 2.4 3 3 3 0 0 1-1.3 0 3 3 0 0 0 2.7 2 6 6 0 0 1-4.4 1.3c1.3.8 3 1.3 4.6 1.3a8.4 8.4 0 0 0 8.5-8.9c.6-.4 1-.9 1.5-1.5z" style="fill:var(--color1, #fff)"/></symbol><symbol id="icon-Ellipse" viewBox="0 0 32 32"><path fill="#fff" d="M32 16A16 16 0 0 1 4.7 27.3 16 16 0 0 1 16 0a16 16 0 0 1 16 16z" opacity=".1" style="fill:var(--color1, #fff)"/><path fill="#fff" d="M23.3 13c0-.8-.2-1.3-.4-1.8s-.4-.9-.8-1.3l-1.3-.8a49.4 49.4 0 0 0-9.5 0L10 10c-.4.4-.7.9-.9 1.3-.1.5-.3 1-.3 1.8a49.8 49.8 0 0 0 .3 7.8c.2.5.5.9.9 1.3l1.3.8a53.3 53.3 0 0 0 9.5 0c1-.4 1.7-1.2 2.1-2.1l.4-1.8v-6zm-1.4 6c0 .7-.1 1-.2 1.3-.2.6-.7 1.1-1.4 1.4a51.2 51.2 0 0 1-8.6 0c-.3-.1-.6-.3-.8-.6l-.5-.8a51.2 51.2 0 0 1 0-8.6c0-.3.3-.6.5-.8.2-.3.5-.4.8-.6a51.2 51.2 0 0 1 8.6 0l.9.6.5.8.2 1.4v5.8z" style="fill:var(--color1, #fff)"/><path fill="#fff" d="M16 12.3a3.7 3.7 0 1 0 0 7.4 3.7 3.7 0 0 0 0-7.4zm0 6.1a2.4 2.4 0 1 1 0-4.8 2.4 2.4 0 0 1 0 4.8zM20.8 12.1a.9.9 0 1 1-1.8 0 .9.9 0 0 1 1.8 0z" style="fill:var(--color1, #fff)"/></symbol><symbol id="icon-Ellipse-10" viewBox="0 0 32 32"><path fill="#2196f3" d="M32 16A16 16 0 0 1 4.7 27.3 16 16 0 0 1 16 0a16 16 0 0 1 16 16z" style="fill:var(--color2, #2196f3)"/><path fill="#fff" d="m23.3 11.5-1.7.5c.6-.4 1-1 1.3-1.7a6 6 0 0 1-2 .7 3 3 0 0 0-5 2.8 8.4 8.4 0 0 1-6.2-3.2 3 3 0 0 0 1 4 3 3 0 0 1-1.4-.3 3 3 0 0 0 2.4 3 3 3 0 0 1-1.3 0 3 3 0 0 0 2.7 2 6 6 0 0 1-4.4 1.3c1.3.8 3 1.3 4.6 1.3a8.4 8.4 0 0 0 8.5-8.9c.6-.4 1-.9 1.5-1.5z" style="fill:var(--color1, #fff)"/></symbol><symbol id="icon-Ellipse-9" viewBox="0 0 32 32"><path fill="#fff" d="M32 16A16 16 0 0 1 4.7 27.3 16 16 0 0 1 16 0a16 16 0 0 1 16 16z" opacity=".1" style="fill:var(--color2, #fff)"/><path fill="#fff" d="M23.3 13c0-.8-.2-1.3-.4-1.8s-.4-.9-.8-1.3l-1.3-.8a49.4 49.4 0 0 0-9.5 0L10 10c-.4.4-.7.9-.9 1.3-.1.5-.3 1-.3 1.8a49.8 49.8 0 0 0 .3 7.8c.2.5.5.9.9 1.3l1.3.8a53.3 53.3 0 0 0 9.5 0c1-.4 1.7-1.2 2.1-2.1l.4-1.8v-6zm-1.4 6c0 .7-.1 1-.2 1.3-.2.6-.7 1.1-1.4 1.4a51.2 51.2 0 0 1-8.6 0c-.3-.1-.6-.3-.8-.6l-.5-.8a51.2 51.2 0 0 1 0-8.6c0-.3.3-.6.5-.8.2-.3.5-.4.8-.6a51.2 51.2 0 0 1 8.6 0l.9.6.5.8.2 1.4v5.8z" style="fill:var(--color2, #fff)"/><path fill="#fff" d="M16 12.3a3.7 3.7 0 1 0 0 7.4 3.7 3.7 0 0 0 0-7.4zm0 6.1a2.4 2.4 0 1 1 0-4.8 2.4 2.4 0 0 1 0 4.8zM20.8 12.1a.9.9 0 1 1-1.8 0 .9.9 0 0 1 1.8 0z" style="fill:var(--color2, #fff)"/></symbol><symbol id="icon-Ellipse-8" viewBox="0 0 32 32"><path fill="#fff" d="M32 16A16 16 0 0 1 4.7 27.3 16 16 0 0 1 16 0a16 16 0 0 1 16 16z" opacity=".1" style="fill:var(--color2, #fff)"/><path fill="#fff" d="M23.3 23.3v-5.4c0-2.6-.6-4.6-3.6-4.6-1.5 0-2.5.8-2.9 1.6v-1.3h-3v9.7h3v-4.8c0-1.3.3-2.5 1.9-2.5 1.5 0 1.6 1.4 1.6 2.5v4.8h3zM9 13.6h3v9.7H9v-9.7zM10.5 8.7c-1 0-1.8.8-1.8 1.8s.8 1.7 1.8 1.7 1.7-.8 1.7-1.7-.8-1.8-1.7-1.8z" style="fill:var(--color2, #fff)"/></symbol><symbol id="icon-Ellipse-7" viewBox="0 0 32 32"><path fill="#fff" d="M32 16A16 16 0 0 1 4.7 27.3 16 16 0 0 1 16 0a16 16 0 0 1 16 16z" opacity=".1" style="fill:var(--color2, #fff)"/><path fill="#fff" d="M18.4 11.1h1.4V8.8h-2c-1.9 0-3.2 1.1-3.2 3.3v2h-2.1v2.7h2v6.5h2.7v-6.5h2l.3-2.6h-2.3v-1.8c0-.7.2-1.3 1.2-1.3z" style="fill:var(--color2, #fff)"/></symbol></defs></svg>